<svg width="20" height="16" viewBox="0 0 20 16" fill="none" xmlns="http://www.w3.org/2000/svg">
<path d="M19 7H1C0.447715 7 0 7.44772 0 8C0 8.55228 0.447715 9 1 9H19C19.5523 9 20 8.55228 20 8C20 7.44772 19.5523 7 19 7Z" fill="white"/>
<path d="M10.5 3C11.3284 3 12 2.32843 12 1.5C12 0.671573 11.3284 0 10.5 0C9.67157 0 9 0.671573 9 1.5C9 2.32843 9.67157 3 10.5 3Z" fill="white"/>
<path d="M10.5 16C11.3284 16 12 15.3284 12 14.5C12 13.6716 11.3284 13 10.5 13C9.67157 13 9 13.6716 9 14.5C9 15.3284 9.67157 16 10.5 16Z" fill="white"/>
</svg>
