<svg width="27" height="18" viewBox="0 0 27 18" fill="none" xmlns="http://www.w3.org/2000/svg">
<path d="M4.00002 7.50002V1.50002C4.00002 1.22388 3.77616 1.00002 3.50002 1.00002C3.22387 1.00002 3.00002 1.22388 3.00002 1.50002V7.50002C3.00002 7.77617 3.22387 8.00002 3.50002 8.00002C3.77616 8.00002 4.00002 7.77617 4.00002 7.50002Z" fill="white"/>
<path d="M6.38565 4.04899L0.614064 4.05071C0.274925 4.05081 6.37865e-05 4.32582 0.000144241 4.66496C0.000224696 5.0041 0.275216 5.27894 0.614354 5.27884L6.38594 5.27712C6.72508 5.27702 6.99994 5.00201 6.99986 4.66287C6.99978 4.32373 6.72479 4.04889 6.38565 4.04899Z" fill="white"/>
<path d="M26.2844 13.0001L19.5204 13.0022C19.233 13.0023 19 13.2353 19.0001 13.5228C19.0001 13.8102 19.2332 14.0431 19.5206 14.043L26.2846 14.041C26.572 14.0409 26.805 13.8078 26.8049 13.5204C26.8048 13.233 26.5718 13 26.2844 13.0001Z" fill="white"/>
<path d="M8.68701 16.8028L18.6784 1.65901C18.921 1.29139 18.8383 0.770994 18.4937 0.496684C18.1491 0.222373 17.6732 0.298018 17.4306 0.665642L7.4392 15.8095C7.19666 16.1771 7.27936 16.6975 7.62394 16.9718C7.96851 17.2461 8.44446 17.1705 8.68701 16.8028Z" fill="white"/>
</svg>
