<svg width="20" height="20" viewBox="0 0 20 20" fill="none" xmlns="http://www.w3.org/2000/svg">
<path d="M19 9H1C0.447715 9 0 9.44772 0 10C0 10.5523 0.447715 11 1 11H19C19.5523 11 20 10.5523 20 10C20 9.44772 19.5523 9 19 9Z" fill="white"/>
<path d="M11.0014 19.0028L11.0267 1.00281C11.0275 0.45053 10.5804 0.00218543 10.0281 0.00140851C9.47582 0.000631593 9.02748 0.447717 9.0267 1L9.00138 19C9.0006 19.5523 9.44769 20.0006 9.99997 20.0014C10.5523 20.0022 11.0006 19.5551 11.0014 19.0028Z" fill="white"/>
</svg>
