<svg width="20" height="24" viewBox="0 0 20 24" fill="none" xmlns="http://www.w3.org/2000/svg">
<path d="M4 0.700195C5.68485 0.700195 7.2998 2.47134 7.2998 5C7.2998 7.52866 5.68485 9.2998 4 9.2998C2.31515 9.2998 0.700195 7.52866 0.700195 5C0.700195 2.47134 2.31515 0.700195 4 0.700195Z" stroke="white" stroke-width="1.4"/>
<path d="M16 13.7002C17.6849 13.7002 19.2998 15.4713 19.2998 18C19.2998 20.5287 17.6849 22.2998 16 22.2998C14.3151 22.2998 12.7002 20.5287 12.7002 18C12.7002 15.4713 14.3151 13.7002 16 13.7002Z" stroke="white" stroke-width="1.4"/>
<path d="M3.66925 22.2252L16.2767 3.11634C16.5932 2.63659 16.4853 1.95749 16.0356 1.59951C15.5859 1.24154 14.9648 1.34025 14.6483 1.82L2.04086 20.9288C1.72434 21.4086 1.83227 22.0877 2.28194 22.4457C2.73161 22.8037 3.35273 22.7049 3.66925 22.2252Z" fill="white"/>
</svg>
