<svg width="19" height="20" viewBox="0 0 19 20" fill="none" xmlns="http://www.w3.org/2000/svg">
<path d="M2.49342 18.6549L17.4663 2.66806C17.9259 2.17738 17.9265 1.38123 17.4678 0.889804C17.009 0.398379 16.2646 0.397772 15.805 0.888449L0.832113 16.8753C0.372557 17.3659 0.371908 18.1621 0.830665 18.6535C1.28942 19.145 2.03386 19.1456 2.49342 18.6549Z" fill="white"/>
<path d="M18.123 16.0323L2.45583 0.849849C1.97149 0.380493 1.22541 0.417158 0.789426 0.931742C0.353438 1.44633 0.392636 2.24397 0.876978 2.71332L16.5442 17.8958C17.0285 18.3651 17.7746 18.3285 18.2106 17.8139C18.6466 17.2993 18.6074 16.5017 18.123 16.0323Z" fill="white"/>
</svg>
